ffmpeg version 4.2.4-1ubuntu0.1 Copyright (c) 2000-2020 the FFmpeg developers
  built with gcc 9 (Ubuntu 9.3.0-10ubuntu2)
  configuration: --prefix=/usr --extra-version=1ubuntu0.1 --toolchain=hardened --libdir=/usr/lib/x86_64-linux-gnu --incdir=/usr/include/x86_64-linux-gnu --arch=amd64 --enable-gpl --disable-stripping --enable-avresample --disable-filter=resample --enable-avisynth --enable-gnutls --enable-ladspa --enable-libaom --enable-libass --enable-libbluray --enable-libbs2b --enable-libcaca --enable-libcdio --enable-libcodec2 --enable-libflite --enable-libfontconfig --enable-libfreetype --enable-libfribidi --enable-libgme --enable-libgsm --enable-libjack --enable-libmp3lame --enable-libmysofa --enable-libopenjpeg --enable-libopenmpt --enable-libopus --enable-libpulse --enable-librsvg --enable-librubberband --enable-libshine --enable-libsnappy --enable-libsoxr --enable-libspeex --enable-libssh --enable-libtheora --enable-libtwolame --enable-libvidstab --enable-libvorbis --enable-libvpx --enable-libwavpack --enable-libwebp --enable-libx265 --enable-libxml2 --enable-libxvid --enable-libzmq --enable-libzvbi --enable-lv2 --enable-omx --enable-openal --enable-opencl --enable-opengl --enable-sdl2 --enable-libdc1394 --enable-libdrm --enable-libiec61883 --enable-nvenc --enable-chromaprint --enable-frei0r --enable-libx264 --enable-shared
  libavutil      56. 31.100 / 56. 31.100
  libavcodec     58. 54.100 / 58. 54.100
  libavformat    58. 29.100 / 58. 29.100
  libavdevice    58.  8.100 / 58.  8.100
  libavfilter     7. 57.100 /  7. 57.100
  libavresample   4.  0.  0 /  4.  0.  0
  libswscale      5.  5.100 /  5.  5.100
  libswresample   3.  5.100 /  3.  5.100
  libpostproc    55.  5.100 / 55.  5.100
Input #0, image2, from './Cubo/Cubo%02d.png':
  Duration: 00:00:04.00, start: 0.000000, bitrate: N/A
    Stream #0:0: Video: png, rgb24(pc), 320x240, 25 fps, 25 tbr, 25 tbn, 25 tbc
Stream mapping:
  Stream #0:0 -> #0:0 (png (native) -> h264 (libx264))
Press [q] to stop, [?] for help
[libx264 @ 0x562681987180] using cpu capabilities: MMX2 SSE2Fast SSSE3 SSE4.2 AVX FMA3 BMI2 AVX2
[libx264 @ 0x562681987180] profile High 4:4:4 Predictive, level 2.1, 4:4:4 8-bit
Output #0, avi, to 'exercici10/cub_h264_perf.avi':
  Metadata:
    ISFT            : Lavf58.29.100
    Stream #0:0: Video: h264 (libx264) (H264 / 0x34363248), yuv444p, 320x240, q=-1--1, 60 fps, 60 tbn, 60 tbc
    Metadata:
      encoder         : Lavc58.54.100 libx264
    Side data:
      cpb: bitrate max/min/avg: 0/0/0 buffer size: 0 vbv_delay: -1
frame=  100 fps=0.0 q=-1.0 Lsize=     293kB time=00:00:01.63 bitrate=1469.3kbits/s speed=7.46x    
video:285kB audio:0kB subtitle:0kB other streams:0kB global headers:0kB muxing overhead: 2.788476%
bench: utime=0.762s stime=0.029s rtime=0.220s
bench: maxrss=92024kB
[libx264 @ 0x562681987180] frame I:9     Avg QP:28.20  size:  4883
[libx264 @ 0x562681987180] frame P:29    Avg QP:31.41  size:  3360
[libx264 @ 0x562681987180] frame B:62    Avg QP:32.79  size:  2427
[libx264 @ 0x562681987180] consecutive B-frames: 16.0%  4.0%  0.0% 80.0%
[libx264 @ 0x562681987180] mb I  I16..4: 22.8%  0.0% 77.2%
[libx264 @ 0x562681987180] mb P  I16..4: 14.1%  0.0% 46.5%  P16..4: 16.2% 12.5%  5.3%  0.0%  0.0%    skip: 5.4%
[libx264 @ 0x562681987180] mb B  I16..4:  2.5%  0.0% 14.4%  B16..8: 33.2% 23.4%  5.7%  direct: 6.1%  skip:14.6%  L0:41.1% L1:45.2% BI:13.6%
[libx264 @ 0x562681987180] coded y,u,v intra: 65.9% 49.7% 53.0% inter: 28.7% 8.7% 11.6%
[libx264 @ 0x562681987180] i16 v,h,dc,p: 21% 31% 19% 29%
[libx264 @ 0x562681987180] i4 v,h,dc,ddl,ddr,vr,hd,vl,hu: 27% 12% 22%  9%  6%  7%  4% 10%  3%
[libx264 @ 0x562681987180] Weighted P-Frames: Y:6.9% UV:6.9%
[libx264 @ 0x562681987180] ref P L0: 66.7% 12.2% 12.8%  8.1%  0.2%
[libx264 @ 0x562681987180] ref B L0: 90.4%  7.1%  2.5%
[libx264 @ 0x562681987180] ref B L1: 95.3%  4.7%
[libx264 @ 0x562681987180] kb/s:1400.85
